<svg version="1.1" xmlns="http://www.w3.org/2000/svg" viewBox="0 0 450 340">
<path fill="#2D0240" d="M255,1 C272,1 289,1 306.6,1.4 C310.7,2.7 314.3,3.6 317.9,4.5 C352,12.7 381.4,29 405.4,54.8 C428.6,79.7 443,108.8 449,142.1 C449.2,143.2 450.3,144 451,145 C451,162 451,179 450.6,196.6 C449.3,200.7 448.4,204.3 447.5,207.9 C439.3,242 423,271.4 397.2,295.4 C372.3,318.6 343.2,333 309.9,339.1 C308.8,339.2 308,340.3 307,341 C290,341 273,341 255.4,340.6 C254.4,339.9 253.9,339.3 253.4,339.1 C243.9,336.7 234.3,334.9 225.1,331.8 C189,319.4 160.5,297.1 139.3,265.5 C122,239.6 112.1,211.1 111.1,179.8 C111,176.5 109.5,175.9 106.8,176 C95.1,176 83.4,175.9 71.8,176.1 C69.8,176.2 67.3,177.4 65.8,178.8 C59.6,184.6 53.8,190.8 47.7,196.7 C44.5,199.9 40.6,200.4 38.6,197.8 C36,194.4 36.7,191.4 39.8,188.6 C43.9,184.9 47.7,180.8 52.5,176 C46.4,176 41.9,176.2 37.5,175.9 C33.8,175.7 31.2,177 28.8,179.6 C24,184.7 18.6,189.3 14.1,194.6 C10.3,199 6.3,200.4 1,198 C1,195.6 1,193.3 1.3,190.4 C8.3,183.8 14.8,177.6 22,170.8 C17,166.1 12.9,162 8.6,158.1 C6.2,155.9 3.5,154 1,152 C1,149.6 1,147.3 1.4,144.4 C6.2,141.4 9.6,142.7 13,146.4 C18.3,152.2 24,157.6 29.6,163.1 C30.8,164.2 32.2,165.7 33.6,165.8 C39.4,166.1 45.3,165.9 52.5,165.9 C47.7,161.1 43.9,157.4 40.1,153.6 C36.6,150.1 35.8,146.3 38.5,144.2 C42,141.4 45.1,142.5 48.1,145.6 C53.9,151.5 59.7,157.5 65.8,163.2 C67.3,164.6 69.8,165.8 71.8,165.9 C83.5,166.1 95.1,165.9 106.8,166.1 C110.1,166.1 110.9,164.9 111.1,161.7 C111.6,154.3 112,146.8 113.4,139.5 C120.8,103.2 137.5,72.1 164.8,46.6 C189.7,23.4 218.8,9 252.1,2.9 C253.2,2.8 254,1.7 255,1 M361.2,88.3 C395.5,122.4 405.7,174.2 386.4,216.4 C365.6,261.6 321,288.5 273.2,284.7 C249.1,282.8 227.4,274.4 208.8,258.9 C183.1,237.4 169.5,209.6 167,176.4 C151.4,176.4 136.4,176.4 121.3,176.4 C123.1,258.1 192.6,334.6 287.8,330.8 C379.8,327.1 450.8,245.9 439.8,152.2 C429.1,61.2 343.2,-4.4 249.8,14.2 C164.1,31.2 120.2,108.9 121.9,165.7 C136.8,165.7 151.8,165.7 166.9,165.7 C167.1,164 167.3,162.6 167.4,161.1 C172.7,110.3 205.7,71.1 254.8,59.4 C294.8,49.9 330.3,60.1 361.2,88.3 M324.1,213.6 C323.2,214.4 322.4,215.2 321.5,215.9 C292.6,241 248.6,234.1 229.3,200.9 C225,193.5 223,184.7 219.8,176.3 C206.2,176.3 191.8,176.3 177.4,176.3 C180,230.7 226.2,276.7 284.8,274.8 C343.5,273 388.7,223.6 385.8,165.1 C382.9,107 332.6,62.3 274.4,66.3 C215.4,70.4 177.8,120.4 177.6,165.8 C192.1,165.8 206.5,165.8 221,165.8 C221.3,164.3 221.6,163 221.8,161.7 C228,122.5 270.6,99.8 306.7,116.5 C344,133.7 354.5,182.3 324.1,213.6 M238.4,197 C251.4,216.8 273.3,225.2 295.7,219 C315.9,213.3 331,194.5 331.9,173.6 C333,148.8 315.6,126.5 291.6,122 C266,117.3 241.4,131.4 233.5,155.6 C232.5,158.8 232.1,162.2 231.3,166 C248.1,166 263.9,166 279.6,166 C283.4,166 286.6,166.9 286.5,171.3 C286.4,175.4 283.2,176.1 279.7,176 C266.2,176 252.7,176 239.2,176 C236.8,176 234.3,176 230.1,176 C233,183.5 235.5,189.9 238.4,197z"/>
<path fill="#FE4057" d="M360.9,88.1 C330.3,60.1 294.8,49.9 254.8,59.4 C205.7,71.1 172.7,110.3 167.4,161.1 C167.3,162.6 167.1,164 166.9,165.7 C151.8,165.7 136.8,165.7 121.9,165.7 C120.2,108.9 164.1,31.2 249.8,14.2 C343.2,-4.4 429.1,61.2 439.8,152.2 C450.8,245.9 379.8,327.1 287.8,330.8 C192.6,334.6 123.1,258.1 121.3,176.4 C136.4,176.4 151.4,176.4 167,176.4 C169.5,209.6 183.1,237.4 208.8,258.9 C227.4,274.4 249.1,282.8 273.2,284.7 C321,288.5 365.6,261.6 386.4,216.4 C405.7,174.2 395.5,122.4 360.9,88.1z"/>
<path fill="#FEFEFE" d="M324.4,213.4 C354.5,182.3 344,133.7 306.7,116.5 C270.6,99.8 228,122.5 221.8,161.7 C221.6,163 221.3,164.3 221,165.8 C206.5,165.8 192.1,165.8 177.6,165.8 C177.8,120.4 215.4,70.4 274.4,66.3 C332.6,62.3 382.9,107 385.8,165.1 C388.7,223.6 343.5,273 284.8,274.8 C226.2,276.7 180,230.7 177.4,176.3 C191.8,176.3 206.2,176.3 219.8,176.3 C223,184.7 225,193.5 229.3,200.9 C248.6,234.1 292.6,241 321.5,215.9 C322.4,215.2 323.2,214.4 324.4,213.4z"/>
<path fill="#FE4057" d="M238.2,196.7 C235.5,189.9 233,183.5 230.1,176 C234.3,176 236.8,176 239.2,176 C252.7,176 266.2,176 279.7,176 C283.2,176.1 286.4,175.4 286.5,171.3 C286.6,166.9 283.4,166 279.6,166 C263.9,166 248.1,166 231.3,166 C232.1,162.2 232.5,158.8 233.5,155.6 C241.4,131.4 266,117.3 291.6,122 C315.6,126.5 333,148.8 331.9,173.6 C331,194.5 315.9,213.3 295.7,219 C273.3,225.2 251.4,216.8 238.2,196.7z"/>
</svg>
