<svg version="1.1" id="Layer_1" xmlns="http://www.w3.org/2000/svg" xmlns:xlink="http://www.w3.org/1999/xlink" x="0px" y="0px"
	 width="100%" viewBox="0 0 450 340" enable-background="new 0 0 450 340" xml:space="preserve">
<path fill="#2D0240" opacity="1.000000" stroke="none" 
	d="
M255.000000,0.999995 
	C272.020905,1.000000 289.041779,1.000000 306.592499,1.382705 
	C310.727020,2.662159 314.326874,3.578816 317.937164,4.452565 
	C352.013794,12.699684 381.358551,28.975889 405.419983,54.810017 
	C428.607727,79.706085 442.972107,108.790489 449.057800,142.137787 
	C449.247131,143.175446 450.332397,144.049622 451.000000,145.000000 
	C451.000000,162.020889 451.000000,179.041794 450.617310,196.592484 
	C449.337860,200.727020 448.421234,204.326935 447.547485,207.937241 
	C439.300385,242.013931 423.023834,271.358459 397.189941,295.420166 
	C372.294006,318.608246 343.209015,332.971252 309.862305,339.058136 
	C308.824646,339.247559 307.950409,340.332520 307.000000,341.000000 
	C289.979095,341.000000 272.958221,341.000000 255.407501,340.617310 
	C254.374161,339.858978 253.922516,339.283844 253.359390,339.137451 
	C243.926315,336.684631 234.265961,334.908966 225.073029,331.764099 
	C189.034821,319.435577 160.490295,297.125549 139.325089,265.504700 
	C121.974030,239.582199 112.109230,211.088501 111.067375,179.768051 
	C110.959007,176.509903 109.520447,175.940399 106.753128,175.960373 
	C95.100197,176.044525 83.443451,175.864731 71.795464,176.118835 
	C69.761429,176.163223 67.346779,177.386795 65.820709,178.823105 
	C59.640789,184.639465 53.770809,190.783661 47.722206,196.741669 
	C44.523380,199.892532 40.554554,200.386826 38.559002,197.764053 
	C36.023010,194.430954 36.708519,191.446121 39.833469,188.590652 
	C43.909374,184.866302 47.685925,180.814362 52.499607,175.993713 
	C46.427063,175.993713 41.934364,176.228027 37.478977,175.920990 
	C33.787754,175.666641 31.226946,176.993744 28.765930,179.627167 
	C23.994522,184.732803 18.640244,189.313400 14.073620,194.584686 
	C10.276924,198.967239 6.275903,200.359299 1.000000,198.000000 
	C1.000000,195.629440 1.000000,193.258896 1.348113,190.440689 
	C8.262635,183.788315 14.829044,177.583603 22.015577,170.792923 
	C17.038090,166.079620 12.879316,162.017044 8.575139,158.114838 
	C6.174974,155.938812 3.533004,154.029495 1.000000,152.000000 
	C1.000000,149.629440 1.000000,147.258896 1.368439,144.435059 
	C6.246311,141.360962 9.634526,142.667419 13.038335,146.409103 
	C18.303001,152.196320 24.012510,157.582367 29.608749,163.061569 
	C30.758829,164.187607 32.201736,165.718353 33.575733,165.789673 
	C39.425392,166.093307 45.299870,165.918747 52.545967,165.918747 
	C47.685921,161.103973 43.898228,157.384018 40.147888,153.626785 
	C36.595619,150.067978 35.817631,146.307526 38.455265,144.199188 
	C41.980995,141.380966 45.141346,142.537704 48.085625,145.553146 
	C53.906265,151.514496 59.744377,157.467957 65.813744,163.170868 
	C67.343224,164.608002 69.757462,165.836533 71.793060,165.880981 
	C83.452744,166.135574 95.122025,165.912979 106.785378,166.061768 
	C110.097580,166.104019 110.905289,164.861038 111.104416,161.696320 
	C111.571602,154.271179 111.976051,146.760788 113.440422,139.493378 
	C120.760010,103.167610 137.511292,72.052063 164.792236,46.605373 
	C189.679169,23.391743 218.779221,9.030511 252.136475,2.941832 
	C253.174545,2.752355 254.049164,1.667448 255.000000,0.999995 
M361.159546,88.336678 
	C395.548004,122.384140 405.749420,174.228302 386.356049,216.386932 
	C365.571564,261.569702 321.045868,288.469177 273.175873,284.666138 
	C249.074570,282.751404 227.419189,274.355347 208.837036,258.877594 
	C183.099884,237.440186 169.491379,209.573929 167.044601,176.398376 
	C151.443649,176.398376 136.380875,176.398376 121.316063,176.398376 
	C123.094131,258.109650 192.607101,334.587555 287.822937,330.764404 
	C379.759918,327.072968 450.846161,245.911591 439.817902,152.176254 
	C429.115448,61.209869 343.204468,-4.391150 249.802460,14.166352 
	C164.090103,31.196051 120.209167,108.866158 121.896439,165.731262 
	C136.839844,165.731262 151.782593,165.731262 166.896027,165.731262 
	C167.085510,164.025192 167.256180,162.560486 167.409882,161.094009 
	C172.732391,110.312935 205.671219,71.134132 254.802307,59.406078 
	C294.792328,49.860088 330.266907,60.113472 361.159546,88.336678 
M324.106049,213.611374 
	C323.233246,214.384735 322.367584,215.166351 321.486511,215.930237 
	C292.561035,241.008514 248.573959,234.082260 229.323090,200.921478 
	C225.001877,193.477966 222.950226,184.716919 219.752747,176.296417 
	C206.245056,176.296417 191.808670,176.296417 177.362976,176.296417 
	C179.978516,230.712036 226.171509,276.727905 284.755493,274.840057 
	C343.514862,272.946625 388.733002,223.593582 385.805115,165.077957 
	C382.900055,107.018646 332.647308,62.306103 274.416260,66.329750 
	C215.445587,70.404503 177.785706,120.372574 177.633255,165.797195 
	C192.057541,165.797195 206.481171,165.797195 220.973816,165.797195 
	C221.294205,164.323456 221.643646,163.037430 221.848160,161.728760 
	C227.986237,122.452255 270.553619,99.830986 306.723328,116.497437 
	C343.993347,133.670898 354.520477,182.279800 324.106049,213.611374 
M238.406708,196.973114 
	C251.411682,216.770523 273.284790,225.167267 295.664917,218.953644 
	C315.871063,213.343613 330.978973,194.454483 331.916443,173.629135 
	C333.035645,148.766693 315.649353,126.538177 291.564484,122.038818 
	C265.955017,117.254646 241.442688,131.396439 233.538269,155.639969 
	C232.502045,158.818146 232.098190,162.202499 231.294434,165.996429 
	C248.052902,165.996429 263.851532,166.018875 279.650024,165.980011 
	C283.406158,165.970779 286.635010,166.941147 286.489075,171.294556 
	C286.353027,175.352890 283.192871,176.058441 279.653198,176.037338 
	C266.168091,175.956924 252.682236,176.005173 239.196655,176.005341 
	C236.758286,176.005371 234.319901,176.005341 230.064651,176.005341 
	C233.025131,183.543762 235.535950,189.937180 238.406708,196.973114 
z"/>
<path fill="#000000" opacity="1.000000" stroke="none" 
	d="
M1.000000,198.468658 
	C6.275903,200.359299 10.276924,198.967239 14.073620,194.584686 
	C18.640244,189.313400 23.994522,184.732803 28.765930,179.627167 
	C31.226946,176.993744 33.787754,175.666641 37.478977,175.920990 
	C41.934364,176.228027 46.427063,175.993713 52.499607,175.993713 
	C47.685925,180.814362 43.909374,184.866302 39.833469,188.590652 
	C36.708519,191.446121 36.023010,194.430954 38.559002,197.764053 
	C40.554554,200.386826 44.523380,199.892532 47.722206,196.741669 
	C53.770809,190.783661 59.640789,184.639465 65.820709,178.823105 
	C67.346779,177.386795 69.761429,176.163223 71.795464,176.118835 
	C83.443451,175.864731 95.100197,176.044525 106.753128,175.960373 
	C109.520447,175.940399 110.959007,176.509903 111.067375,179.768051 
	C112.109230,211.088501 121.974030,239.582199 139.325089,265.504700 
	C160.490295,297.125549 189.034821,319.435577 225.073029,331.764099 
	C234.265961,334.908966 243.926315,336.684631 253.359390,339.137451 
	C253.922516,339.283844 254.374161,339.858978 254.938843,340.617310 
	C170.426697,341.000000 85.853409,341.000000 1.000000,341.000000 
	C1.000000,293.646149 1.000000,246.291733 1.000000,198.468658 
z"/>
<path fill="#000000" opacity="1.000000" stroke="none" 
	d="
M254.531342,0.999995 
	C254.049164,1.667448 253.174545,2.752355 252.136475,2.941832 
	C218.779221,9.030511 189.679169,23.391743 164.792236,46.605373 
	C137.511292,72.052063 120.760010,103.167610 113.440422,139.493378 
	C111.976051,146.760788 111.571602,154.271179 111.104416,161.696320 
	C110.905289,164.861038 110.097580,166.104019 106.785378,166.061768 
	C95.122025,165.912979 83.452744,166.135574 71.793060,165.880981 
	C69.757462,165.836533 67.343224,164.608002 65.813744,163.170868 
	C59.744377,157.467957 53.906265,151.514496 48.085625,145.553146 
	C45.141346,142.537704 41.980995,141.380966 38.455265,144.199188 
	C35.817631,146.307526 36.595619,150.067978 40.147888,153.626785 
	C43.898228,157.384018 47.685921,161.103973 52.545967,165.918747 
	C45.299870,165.918747 39.425392,166.093307 33.575733,165.789673 
	C32.201736,165.718353 30.758829,164.187607 29.608749,163.061569 
	C24.012510,157.582367 18.303001,152.196320 13.038335,146.409103 
	C9.634526,142.667419 6.246311,141.360962 1.368439,143.990891 
	C1.000000,96.385902 1.000000,48.771812 1.000000,1.000000 
	C85.354164,1.000000 169.708420,1.000000 254.531342,0.999995 
z"/>
<path fill="#000000" opacity="1.000000" stroke="none" 
	d="
M451.000000,144.531342 
	C450.332397,144.049622 449.247131,143.175446 449.057800,142.137787 
	C442.972107,108.790489 428.607727,79.706085 405.419983,54.810017 
	C381.358551,28.975889 352.013794,12.699684 317.937164,4.452565 
	C314.326874,3.578816 310.727020,2.662159 307.061157,1.382705 
	C354.926971,1.000000 402.853973,1.000000 451.000000,1.000000 
	C451.000000,48.687336 451.000000,96.375008 451.000000,144.531342 
z"/>
<path fill="#000000" opacity="1.000000" stroke="none" 
	d="
M307.468628,341.000000 
	C307.950409,340.332520 308.824646,339.247559 309.862305,339.058136 
	C343.209015,332.971252 372.294006,318.608246 397.189941,295.420166 
	C423.023834,271.358459 439.300385,242.013931 447.547485,207.937241 
	C448.421234,204.326935 449.337860,200.727020 450.617310,197.061142 
	C451.000000,244.926987 451.000000,292.853973 451.000000,341.000000 
	C403.312653,341.000000 355.625000,341.000000 307.468628,341.000000 
z"/>
<path fill="#000000" opacity="1.000000" stroke="none" 
	d="
M1.000000,152.468658 
	C3.533004,154.029495 6.174974,155.938812 8.575139,158.114838 
	C12.879316,162.017044 17.038090,166.079620 22.015577,170.792923 
	C14.829044,177.583603 8.262635,183.788315 1.348113,189.996521 
	C1.000000,177.645767 1.000000,165.291550 1.000000,152.468658 
z"/>
<path fill="#FE4057" opacity="1.000000" stroke="none" 
	d="
M360.898743,88.097443 
	C330.266907,60.113472 294.792328,49.860088 254.802307,59.406078 
	C205.671219,71.134132 172.732391,110.312935 167.409882,161.094009 
	C167.256180,162.560486 167.085510,164.025192 166.896027,165.731262 
	C151.782593,165.731262 136.839844,165.731262 121.896439,165.731262 
	C120.209167,108.866158 164.090103,31.196051 249.802460,14.166352 
	C343.204468,-4.391150 429.115448,61.209869 439.817902,152.176254 
	C450.846161,245.911591 379.759918,327.072968 287.822937,330.764404 
	C192.607101,334.587555 123.094131,258.109650 121.316063,176.398376 
	C136.380875,176.398376 151.443649,176.398376 167.044601,176.398376 
	C169.491379,209.573929 183.099884,237.440186 208.837036,258.877594 
	C227.419189,274.355347 249.074570,282.751404 273.175873,284.666138 
	C321.045868,288.469177 365.571564,261.569702 386.356049,216.386932 
	C405.749420,174.228302 395.548004,122.384140 360.898743,88.097443 
z"/>
<path fill="#FEFEFE" opacity="1.000000" stroke="none" 
	d="
M324.358154,213.359100 
	C354.520477,182.279800 343.993347,133.670898 306.723328,116.497437 
	C270.553619,99.830986 227.986237,122.452255 221.848160,161.728760 
	C221.643646,163.037430 221.294205,164.323456 220.973816,165.797195 
	C206.481171,165.797195 192.057541,165.797195 177.633255,165.797195 
	C177.785706,120.372574 215.445587,70.404503 274.416260,66.329750 
	C332.647308,62.306103 382.900055,107.018646 385.805115,165.077957 
	C388.733002,223.593582 343.514862,272.946625 284.755493,274.840057 
	C226.171509,276.727905 179.978516,230.712036 177.362976,176.296417 
	C191.808670,176.296417 206.245056,176.296417 219.752747,176.296417 
	C222.950226,184.716919 225.001877,193.477966 229.323090,200.921478 
	C248.573959,234.082260 292.561035,241.008514 321.486511,215.930237 
	C322.367584,215.166351 323.233246,214.384735 324.358154,213.359100 
z"/>
<path fill="#FE4057" opacity="1.000000" stroke="none" 
	d="
M238.226746,196.651855 
	C235.535950,189.937180 233.025131,183.543762 230.064651,176.005341 
	C234.319901,176.005341 236.758286,176.005371 239.196655,176.005341 
	C252.682236,176.005173 266.168091,175.956924 279.653198,176.037338 
	C283.192871,176.058441 286.353027,175.352890 286.489075,171.294556 
	C286.635010,166.941147 283.406158,165.970779 279.650024,165.980011 
	C263.851532,166.018875 248.052902,165.996429 231.294434,165.996429 
	C232.098190,162.202499 232.502045,158.818146 233.538269,155.639969 
	C241.442688,131.396439 265.955017,117.254646 291.564484,122.038818 
	C315.649353,126.538177 333.035645,148.766693 331.916443,173.629135 
	C330.978973,194.454483 315.871063,213.343613 295.664917,218.953644 
	C273.284790,225.167267 251.411682,216.770523 238.226746,196.651855 
z"/>
</svg>